<?xml version="1.0" encoding="utf-8"?>
<!-- Generator: Adobe Illustrator 25.2.3, SVG Export Plug-In . SVG Version: 6.00 Build 0)  -->
<svg version="1.1" id="Layer_1" xmlns="http://www.w3.org/2000/svg" xmlns:xlink="http://www.w3.org/1999/xlink" x="0px" y="0px"
	 viewBox="0 0 2000 2000" style="enable-background:new 0 0 2000 2000;" xml:space="preserve">
<style type="text/css">
	.st0{display:none;}
	.st1{fill:url(#SVGID_1_);}
	.st2{fill:#FFFFFF;}
	.st3{fill:url(#SVGID_2_);}
	.st4{fill:url(#SVGID_3_);}
	.st5{fill:url(#SVGID_4_);}
	.st6{fill:url(#SVGID_5_);}
	.st7{fill:url(#SVGID_6_);}
</style>
<rect class="st0" width="2000" height="2000"/>
<g>
	<g>
		<linearGradient id="SVGID_1_" gradientUnits="userSpaceOnUse" x1="999.9473" y1="664.6768" x2="999.9473" y2="1676.7235">
			<stop  offset="0" style="stop-color:#ED038D"/>
			<stop  offset="1" style="stop-color:#FC6568"/>
		</linearGradient>
		<polygon class="st1" points="1252.66,632.47 1225.21,632.47 1000,884.19 774.74,632.47 747.28,632.47 573.51,1367.53 
			623.9,1367.53 860.41,1103.24 832.17,1071.69 634.42,1292.69 775.42,696.32 971.7,915.74 909.8,984.91 938.04,1016.51 
			1000,947.25 1061.9,1016.46 1090.15,984.91 1028.24,915.74 1224.53,696.32 1365.48,1292.64 1167.78,1071.69 1139.53,1103.24 
			1375.94,1367.53 1426.38,1367.53 		"/>
		<polygon class="st2" points="675.07,777.85 670.44,797.52 663.29,827.76 572.78,726.62 572.78,726.57 538.59,688.38 
			538.59,688.33 550.37,638.47 		"/>
		<polygon class="st2" points="1242.57,932.84 1230.78,882.92 999.95,1140.9 769.16,882.98 757.33,932.89 978.91,1180.5 
			978.91,1367.53 1020.98,1367.53 1020.98,1180.5 		"/>
		<polygon class="st2" points="1461.41,688.33 1427.22,726.57 1336.66,827.76 1329.56,797.52 1324.88,777.79 1449.63,638.37 		"/>
	</g>
</g>
</svg>
