<?xml version="1.0" encoding="utf-8"?>
<!-- Generator: Adobe Illustrator 19.2.1, SVG Export Plug-In . SVG Version: 6.00 Build 0)  -->
<svg version="1.1" id="layer" xmlns="http://www.w3.org/2000/svg" xmlns:xlink="http://www.w3.org/1999/xlink" x="0px" y="0px"
	 viewBox="0 0 652 652" style="enable-background:new 0 0 652 652;" xml:space="preserve">
<style type="text/css">
	.st0{fill:#161616;}
</style>
<path class="st0" d="M274.2,472.7c-18.9,0-34.2,15.3-34.2,34.2l0,27.2c0,3.4,2.7,6.2,6.1,6.4h6.9V507c0-11.8,9.5-21.3,21.3-21.3
	c9,0,16.7,5.6,19.8,13.5h13.5C303.9,484,290.4,472.7,274.2,472.7"/>
<path class="st0" d="M121.5,472.7c-18.9,0-34.2,15.3-34.2,34.2c0,18.9,15.3,34.2,34.2,34.2c15.4,0,28.5-10.2,32.8-24.2h-14
	c-3.6,6.7-10.6,11.3-18.8,11.3c-10.1,0-18.6-7.1-20.7-16.6h52.7v0h1.9c0.2-1.5,0.4-3.1,0.4-4.7C155.7,488,140.4,472.7,121.5,472.7
	 M101.7,499.2c3.1-7.9,10.8-13.6,19.8-13.6c9,0,16.7,5.6,19.8,13.6H101.7z"/>
<path class="st0" d="M520.7,472.7c-18.9,0-34.2,15.3-34.2,34.2c0,18.9,15.3,34.2,34.2,34.2c15.4,0,28.4-10.2,32.7-24.2h-13.9
	c-3.6,6.7-10.7,11.3-18.8,11.3c-10.1,0-18.6-7.1-20.8-16.6h52.7v0h2c0.2-1.5,0.4-3.1,0.4-4.7C555,488,539.6,472.7,520.7,472.7
	 M500.9,499.2c3.1-7.9,10.8-13.6,19.8-13.6c9,0,16.7,5.6,19.8,13.6H500.9z"/>
<path class="st0" d="M445.1,472.7c-18.9,0-34.2,15.3-34.2,34.2c0,18.9,15.3,34.2,34.2,34.2c8.1,0,15.5-2.8,21.4-7.5v4.3
	c0,11.7-9.6,21.3-21.3,21.3c-9,0-16.7-5.6-19.8-13.5h-13.5c3.5,15.1,17.1,26.4,33.3,26.4c18.9,0,34.2-15.3,34.1-34.2v-30.5
	c0-0.2,0-0.3,0-0.5C479.3,488,464,472.7,445.1,472.7 M445.1,528.2c-11.8,0-21.3-9.5-21.3-21.3c0-11.8,9.5-21.3,21.3-21.3
	c11.8,0,21.3,9.5,21.3,21.3C466.4,518.7,456.8,528.2,445.1,528.2"/>
<path class="st0" d="M320.1,451.6c-3.6,0-6.5,2.9-6.5,6.5s2.9,6.5,6.5,6.5c3.6,0,6.5-2.9,6.5-6.5S323.7,451.6,320.1,451.6"/>
<path class="st0" d="M369.7,472.7c-18.9,0-34.2,15.3-34.2,34.2v27.1c0,3.6,2.9,6.5,6.5,6.5h6.4l0.1-33.6c0-11.8,9.5-21.3,21.3-21.3
	c11.8,0,21.3,9.5,21.3,21.3v27.1c0,3.6,2.9,6.5,6.5,6.5h6.5l0-33.6C403.9,488.1,388.6,472.7,369.7,472.7"/>
<path class="st0" d="M596.3,472.7c-18.9,0-34.2,15.3-34.2,34.2v27.4c0.1,3.4,2.9,6.2,6.4,6.2h6.5V507c0-11.8,9.5-21.3,21.3-21.3
	c9,0,16.7,5.6,19.8,13.5h13.5C626.1,484,612.5,472.7,596.3,472.7"/>
<path class="st0" d="M46.1,472.7c-8.2,0-15.8,2.9-21.7,7.8v-26.3h0c0-3.6-2.9-6.5-6.5-6.5v0h-6v58.7c0,0.2,0,0.3,0,0.5
	c0,18.9,15.3,34.2,34.2,34.2c18.9,0,34.2-15.3,34.2-34.2C80.3,488,65,472.7,46.1,472.7 M46.1,528.2c-11.8,0-21.3-9.5-21.3-21.3
	c0-11.8,9.5-21.3,21.3-21.3c11.8,0,21.3,9.5,21.3,21.3C67.4,518.7,57.9,528.2,46.1,528.2"/>
<path class="st0" d="M313.6,534.1c0,3.5,2.9,6.4,6.5,6.4v0h6.5v-67.4h-13"/>
<path class="st0" d="M197.1,472.7c-8.1,0-15.4,2.8-21.2,7.4v-26c0-3.6-2.9-6.4-6.5-6.4h-6.5l0,86.4c0,3.6,2.9,6.5,6.5,6.5h6.5v-34.7
	c0.6-11.3,9.8-20.2,21.2-20.2c11.7,0,21.3,9.5,21.3,21.3v27.2c0,3.4,2.7,6.2,6.1,6.4h6.8l0-33.6C231.3,488.1,216,472.7,197.1,472.7"
	/>
<path class="st0" d="M111.5,410.9l5.5,1.8l2.9,0.7l5.9,0.5l389.8,0l5.5-0.4l3.2-0.7l5.3-1.7l3-1.4l2.4-1.3l4.8-3.4l2.3-2l2.3-2.5
	l1.6-2l3-4.9l2.4-5.9l0.8-2.6l0.9-5.7l0.1-6l-0.8-5.7l-1-3.5l-2-5l-3.2-5.2L350.2,85.5l-2.1-2.3l-2.4-2.2l-2-1.6l-5-3.1l-5.3-2.2
	l-2.9-0.9l-6-0.9l-5.7,0l-5.8,0.8l-5.7,1.7l-5.4,2.6l-5,3.8l-2,1.8l-2.2,2.5l-1.7,2.1L94.2,356.1l-2.7,5.3l-1.1,2.9l-1.4,5.8
	l-0.4,2.8l0,5.9l0.8,5.7l0.9,3.2l2.1,5.2l3.3,5.3l1.6,2.2l2,2.3l2.3,2.1l4.7,3.4 M103.6,395.4l-1.3-1.8l-2.6-4l-1.8-4.5l-0.7-2.1
	l-0.7-4.6v-4.7l0.3-2.2L98,367l0.8-2.2l2.1-4.3L297.6,92.4l1.4-1.8l1.7-1.8l1.6-1.5l3.7-2.9l4.1-2.1l4.5-1.4l4.5-0.7h4.5l4.7,0.7
	l2.1,0.7l4.3,1.8l4,2.4l3.4,2.9l1.5,1.7l195.4,268.2l2.6,4.1l1.7,4.3l0.7,2.3l0.7,4.6v4.7l-0.7,4.6l-0.6,2l-1.8,4.5l-2.5,4.1
	l-2.9,3.3l-1.7,1.5l-4,2.9l-1.8,1l-2.2,1l-4.5,1.4l-2.1,0.5l-4.9,0.4h-389l-4.9-0.4l-2.1-0.5l-4.4-1.4l-4.2-2.1l-3.9-2.9l-1.7-1.5
	L103.6,395.4z"/>
<path class="st0" d="M223.4,357c6.7,5.4,14.6,7.3,22.2,7.7c10.2,0.6,20.9-1.6,26.5-3.2c7.9-2.2,19.4-6.6,35.9-17.5
	c14.5-9.5,30.1-23.4,42.1-37.3c16.5-19.1,32.6-47.6,34.2-71c4.1-58.9-48-51-67.7-44.4c-16,5.3-32.8,16.4-35.4,18.1c0,0,0,0-0.1,0
	c-0.1,0-0.1,0.1-0.2,0.1c0,0-0.1,0.1-0.1,0.1c-0.8,0.6-1.2,1.5-0.8,2c0.4,0.6,1.3,0.6,2.2,0.2v0c0,0,13.4-9.2,29.3-13.8
	c11.2-3.2,23.6-4.1,33.5,1.6c26.1,15,12.8,60.1-8,90c-11.9,17.2-29.2,35.7-48.6,48.3c-15,9.7-29.4,16.3-46.3,16.4
	c-34.8,0.1-31-38.7-31-38.7h0c0,0,0-0.1,0-0.1c0.1-1.1-0.2-2.1-0.8-2.2c-0.6-0.1-1.1,0.8-1.2,2c0,0.1,0,0.1,0,0.2
	C208.6,321.1,205.1,342.4,223.4,357"/>
<path class="st0" d="M224.5,299.6c3.5-0.6,8.2-1.7,13.6-3.9c7.5-3.1,22.5-10.8,36.6-24.3c11.2-10.7,18.3-22.8,18.1-32.3
	c-0.4-13.5-15.3-13.6-21.2-13.1c-1.4,0.1-2.7,0.8-3.4,1.8c-6.8,9.9-45.1,65.7-46.7,67.9C219.6,298.4,220.7,300.2,224.5,299.6"/>
</svg>
