<?xml version="1.0" encoding="utf-8"?>
<!-- Generator: Adobe Illustrator 19.2.1, SVG Export Plug-In . SVG Version: 6.00 Build 0)  -->
<svg version="1.1" id="layer" xmlns="http://www.w3.org/2000/svg" xmlns:xlink="http://www.w3.org/1999/xlink" x="0px" y="0px"
	 viewBox="0 0 652 652" style="enable-background:new 0 0 652 652;" xml:space="preserve">
<g>
	<path d="M55.9,319.7c-0.6-0.9-2.3-1.8-4.4-1.8c-4.3,0-6.7,2.8-6.7,9.4c0,7.7,1.3,10.2,5.2,10.2c2.3,0,3.9-1,6-3.3V319.7z
		 M60.4,350.6l-1.1-4.1c-3.5,3.5-7.9,5.6-13.4,5.6c-14,0-20.2-9.5-20.2-22.4c0-15.5,7.8-26.4,24.6-26.4c2,0,4.2,0.4,5.6,0.6v-19
		h18.2v65.7H60.4z"/>
	<path d="M105.3,325.9h-4.2v10.7h5.2c4.7,0,6.9-2,6.9-5.3C113.1,328.2,111.3,325.9,105.3,325.9 M104.6,303.1h-3.5v9.6h4
		c3.8,0,5.9-2,5.9-4.8C111,304.3,108.4,303.1,104.6,303.1 M104.5,350.6H82.6v-61.1h22.6c14.7,0,24.5,3.8,24.5,15.6
		c0,6.1-3.7,10.4-9,12c7,1.2,12.1,5.8,12.1,13.9C132.9,346.5,118.8,350.6,104.5,350.6"/>
	<polygon points="158.9,294 158.9,347.6 153.5,347.6 153.5,294 135,294 135,289.3 177.5,289.3 177.5,294 	"/>
	<path d="M196.3,308.9c-8.7,0-13.1,7.5-13.1,13.7h24.6C208,314.3,203.7,308.9,196.3,308.9 M213.2,326.8h-30
		c0,10.5,3.4,17.3,14.8,17.3c5.5,0,9.1-0.9,13.2-2l0.8,4.2c-4.2,1.4-9.4,2.3-15.2,2.3c-13.2,0-19.5-7.4-19.5-21.9
		c0-13.3,7-22.1,19.4-22.1c11.1,0,16.4,8.5,16.4,18.6V326.8z"/>
	<path d="M242.2,348.3c-13.7,0-19.4-8.3-19.4-21.3c0-14.1,8.2-22.3,20-22.3c3.8,0,7.4,0.7,11,2.3l-1.5,4.1c-3.1-1.3-6.1-2-9.3-2
		c-10.2,0-14.2,7.5-14.2,17.6c0,11.5,4.7,17,14.2,17c3.6,0,6.6-0.5,9.8-1.8l1,4.2C249.4,347.9,245.3,348.3,242.2,348.3"/>
	<path d="M293.3,347.6v-25.2c0-7.7-2.3-13.4-9.5-13.4c-6,0-9.3,2.9-14.5,8.2v30.3H264V285h5.3v27c4.7-5,8.9-7.5,14.9-7.5
		c11,0,14.5,8,14.5,16.9v26.2H293.3z"/>
	<path d="M342.6,347.6v-25.2c0-7.7-2.6-13.4-9.7-13.4c-6,0-9.5,2.9-14.5,8.2v30.3H313v-42.1h4.3l0.9,6.7c5-5.4,9-7.7,15.3-7.7
		c10.9,0,14.4,8,14.4,16.9v26.2H342.6z"/>
	<path d="M380.1,309c-9.9,0-14.9,7.2-14.9,17c0,10.2,4.1,18,15.2,18c9.6,0,14.5-7.9,14.5-17C395,317.8,390.9,309,380.1,309
		 M379.5,348.5c-13.8,0-20.2-9.6-20.2-21.6c0-12.9,7.7-22.4,21.1-22.4c12.7,0,20.4,8.6,20.4,21.5
		C400.9,338.4,392.4,348.5,379.5,348.5"/>
	<path d="M421.4,348.1c-5,0-8.6-2.1-8.6-8.2V285h5.3v53.6c0,2.9,0.7,4.8,3.5,4.8h3.7v4.2C424.4,347.9,422.7,348.1,421.4,348.1"/>
	<path d="M452,309c-9.9,0-14.9,7.2-14.9,17c0,10.2,4.1,18,15.2,18c9.6,0,14.5-7.9,14.5-17C466.8,317.8,462.7,309,452,309
		 M451.5,348.5c-14,0-20.2-9.6-20.2-21.6c0-12.9,7.6-22.4,21-22.4c12.7,0,20.4,8.6,20.4,21.5C472.7,338.4,464.4,348.5,451.5,348.5"
		/>
	<path d="M513.9,311.1c-3.1-1.3-6.9-2-11.2-2c-9.7,0-14.8,7.1-14.8,18.3c0,7.7,2.7,16.4,11.2,16.4c5.6,0,9.6-2.8,14.8-8.8V311.1z
		 M499.3,366.1c-2.8,0-7.3-0.2-11.5-1.1l0.1-3.9c3.7,0.1,7.7,0.2,11.2,0.2c10.7,0,14.8-3.1,14.8-14.4v-6.3c-5,5.2-9.3,7.4-15.5,7.4
		c-11.3,0-16.2-9.3-16.2-20.4c0-12.1,6.5-22.8,21-22.8c5.3,0,11.2,0.8,16,2.3V347C519.2,360.2,514.4,366.1,499.3,366.1"/>
	<path d="M538.8,295.6c-2.5,0-4.2-1.8-4.2-4.2c0-2.3,1.8-4.2,4.2-4.2c2.2,0,4.1,1.8,4.1,4.2C542.9,293.9,541,295.6,538.8,295.6
		 M536.5,347.6v-38h-7.7v-4.2h13.1v42.1H536.5z"/>
	<path d="M572.7,308.9c-8.8,0-13,7.5-13.1,13.7h24.6C584.6,314.3,580.1,308.9,572.7,308.9 M589.6,326.8h-30
		c0,10.5,3.4,17.3,14.8,17.3c5.5,0,9.1-0.9,13.3-2l0.9,4.2c-4.3,1.4-9.5,2.3-15.3,2.3c-13.3,0-19.4-7.4-19.4-21.9
		c0-13.3,6.9-22.1,19.3-22.1c11.2,0,16.7,8.5,16.7,18.6C589.8,323.7,589.6,325.6,589.6,326.8"/>
	<path d="M609.8,348.5c-3.5,0-7.5-0.7-10.8-1.8l0.9-4.9c3.5,1.2,7.4,2,11,2c5.2,0,9.2-2.3,9.2-7.4c0-4-3.1-5.7-9.2-8
		c-6.8-2.4-11.3-5.2-11.3-11.6c0-7.6,5.4-12.4,14.5-12.4c2.8,0,6.3,0.5,8.9,1.5l-0.8,4.5c-2.8-1.1-5.8-1.5-8.8-1.5
		c-5.8,0-8.2,3.7-8.2,7.2c0,4.1,3,5.8,9.5,8c6.3,2.3,11,4.9,11,11.6C625.7,343.7,619.3,348.5,609.8,348.5"/>
</g>
</svg>
