<?xml version="1.0" encoding="utf-8"?>
<!-- Generator: Adobe Illustrator 19.2.1, SVG Export Plug-In . SVG Version: 6.00 Build 0)  -->
<svg version="1.1" id="layer" xmlns="http://www.w3.org/2000/svg" xmlns:xlink="http://www.w3.org/1999/xlink" x="0px" y="0px"
	 viewBox="0 0 652 652" style="enable-background:new 0 0 652 652;" xml:space="preserve">
<polygon points="140.5,262 140.5,381 140.4,381.1 140.4,381.3 140.3,381.4 140.2,381.5 140,381.6 139.9,381.6 20.9,381.6 
	20.7,381.6 20.6,381.5 20.4,381.4 20.4,381.3 20.3,381.2 20.3,381.3 20.4,381.5 20.5,381.6 20.6,381.7 20.7,381.7 20.9,381.8 
	139.9,381.8 140.1,381.7 140.2,381.7 140.3,381.6 140.4,381.5 140.5,381.3 140.5,381.2 140.5,262.2 "/>
<polygon points="20.3,262.2 20.3,262 20.4,261.9 20.5,261.7 20.6,261.7 20.7,261.6 20.9,261.6 139.9,261.6 140.1,261.6 140.2,261.7 
	140.3,261.7 140.4,261.9 140.5,262 140.5,262 140.4,261.8 140.4,261.7 140.3,261.6 140.2,261.5 140,261.4 139.9,261.4 20.9,261.4 
	20.7,261.4 20.6,261.5 20.4,261.6 20.4,261.7 20.3,261.8 20.3,262 20.3,381 20.3,381.1 20.3,381.2 20.3,381.2 "/>
<path d="M20.4,381.4l0.1,0.1l0.1,0.1l0.2,0h119l0.2,0l0.1-0.1l0.1-0.1l0.1-0.1l0.1-0.1l0-0.2V262l0-0.1l-0.1-0.1l-0.1-0.1l-0.1-0.1
	l-0.2,0h-119l-0.2,0l-0.1,0.1l-0.1,0.1l-0.1,0.1l0,0.1l0,0.2v119l0,0l0,0.1L20.4,381.4z M28.2,269.3h104.4v0.2h0v104.3H28.2v-0.2h0
	V269.3z"/>
<path d="M128.7,273.9l-0.2-0.2l-0.2-0.2l-0.3-0.2l-0.3-0.1l-0.3,0H33.7l-0.3,0l-0.3,0.1l-0.3,0.2l-0.2,0.2l-0.2,0.2l-0.2,0.3
	l-0.1,0.3l0,0.3v93.6l0,0.2l0.1,0.2l0.2,0.3l0.2,0.3l0.2,0.2l0.3,0.2l0.3,0.1l0.3,0h93.6l0.3,0l0.3-0.1l0.3-0.2l0.2-0.2l0.2-0.3
	l0.2-0.3l0.1-0.3l0-0.3v-93.6l0-0.2l-0.1-0.3L128.7,273.9z M73.8,337.3L73.8,337.3l0,0.2l0,0.1l-0.1,0.1l-0.1,0.1l-0.1,0l-0.1,0
	l-0.1,0H44l-0.1,0l-0.1,0l-0.1,0l-0.1-0.1l-0.1-0.1l0-0.1l0-0.1l0-0.1v-0.1l0,0l0-0.1v-51.5l0-0.1l0-0.1l0-0.1l0.1-0.1l0.1-0.1
	l0.1,0l0.1,0l0.1,0h29.2l0.1,0l0.1,0l0.1,0l0.1,0.1l0.1,0.1l0,0.1l0,0.1l0,0.1v0l0,0l0,0.1v10.2l0,0.1l0,0.1l0,0.1l0,0.1l-0.1,0.1
	l-0.1,0l-0.1,0l-0.1,0H55.6l-0.1,0l-0.1,0l-0.1,0l-0.1,0.1l-0.1,0.1l0,0.1l0,0.1l0,0.1v8.3l0,0l0,0.1l0.1,0.1l0.1,0.1l0.1,0l0.1,0
	l0.1,0h17.7l0.1,0l0.1,0l0.1,0l0.1,0.1l0.1,0.1l0,0.1l0,0.1l0,0.1v0.1l0,0l0,0.1v10.3l0,0.1l0,0.1l0,0.1l0,0.1l-0.1,0.1l-0.1,0
	l-0.1,0l-0.1,0H55.5l-0.1,0l-0.1,0l-0.1,0l-0.1,0l-0.1,0.1l0,0.1l0,0.1l0,0.1v8.8l0,0l0,0.1l0,0.1l0.1,0.1l0.1,0l0.1,0l0.1,0h17.9
	l0.1,0l0.1,0l0.1,0l0.1,0.1l0.1,0.1l0,0.1l0,0.1l0,0.1v0l0,0.1l0,0.1V337.3z M121.3,296L121.3,296l-24.8,58.4l0,0.1l-0.1,0.1l-0.1,0
	l-0.1,0l-0.1,0l-0.1,0H85.6l-0.1,0l-0.1,0l-0.1,0l-0.1,0l0-0.1l0-0.1l0-0.1l0-0.1v0l0-0.1l0-0.1v-37.3h-4.4l-0.1,0l-0.1,0l-0.1,0
	l-0.1-0.1l-0.1-0.1l0-0.1l0-0.1l0-0.1v0l0-0.1l0-0.1v-10.3l0-0.1l0-0.1l0-0.1l0.1-0.1l0.1-0.1l0.1,0l0.1,0l0.1,0h14.9l0.1,0l0.1,0
	l0.1,0l0.1,0.1l0.1,0.1l0,0.1l0,0.1l0,0.1v0l0,0.1l0,0.1v17.5l0,0l0,0.1l0,0.1l0.1,0.1l0.1,0l0.1,0l0.1,0h0.1l0.1,0l0.1,0l0.1,0
	l0.1-0.1l0-0.1l0-0.1l12-28l0-0.1l0.1-0.1l0.1-0.1l0.1,0l0.1,0l0.1,0h11.6l0.1,0l0.1,0l0.1,0l0.1,0l0.1,0.1l0,0.1l0,0.1l0,0.1l0,0.1
	l0,0l0,0l0,0.1L121.3,296L121.3,296z"/>
<polygon points="32.1,368.7 32,368.5 32,274.8 32.1,274.5 32.2,274.2 32.3,273.9 32.5,273.7 32.8,273.5 33,273.3 33.3,273.2 
	33.7,273.2 127.3,273.2 127.6,273.2 127.9,273.3 128.2,273.5 128.5,273.7 128.7,273.9 128.8,274.2 128.9,274.5 128.9,274.3 
	128.8,274 128.6,273.8 128.4,273.5 128.2,273.3 127.9,273.2 127.6,273.1 127.3,273 33.6,273 33.3,273.1 33,273.2 32.7,273.3 
	32.5,273.5 32.3,273.8 32.1,274 32,274.3 32,274.7 32,368.3 32,368.6 "/>
<polygon points="28.2,373.7 28.2,373.8 132.6,373.8 132.6,269.5 132.5,269.5 132.5,373.7 "/>
<polygon points="80.7,316.5 80.6,316.5 80.6,316.5 80.5,316.5 80.4,316.4 80.4,316.4 80.3,316.3 80.3,316.3 80.3,316.3 80.3,316.4 
	80.4,316.5 80.4,316.5 80.5,316.6 80.5,316.6 80.6,316.7 80.7,316.7 80.7,316.7 85.1,316.7 85.1,316.5 "/>
<polygon points="96.1,323.5 96.1,323.5 96.1,306 96.1,305.9 96.1,305.9 96.1,323.4 "/>
<polygon points="121.3,295.8 121.3,295.8 121.3,295.8 121.3,295.9 96.5,354.2 96.4,354.3 96.4,354.3 96.3,354.4 96.2,354.4 
	96.1,354.4 96.1,354.5 85.5,354.5 85.4,354.4 85.4,354.4 85.3,354.4 85.2,354.3 85.2,354.3 85.1,354.2 85.1,354.2 85.1,354.2 
	85.1,354.3 85.2,354.4 85.2,354.4 85.3,354.5 85.3,354.6 85.4,354.6 85.5,354.6 85.6,354.6 96.1,354.6 96.2,354.6 96.2,354.6 
	96.3,354.6 96.4,354.5 96.4,354.4 96.5,354.4 121.3,296 121.3,296 121.3,295.9 121.3,295.8 "/>
<polygon points="73.6,316.2 73.6,316.3 73.6,316.4 73.5,316.4 73.5,316.5 73.4,316.5 73.3,316.5 73.2,316.5 55.5,316.5 55.4,316.5 
	55.3,316.6 55.2,316.6 55.2,316.7 55.1,316.7 55.1,316.8 55.1,316.9 55,317 55,325.8 55.1,325.8 55.1,325.9 55.1,317.1 55.1,317.1 
	55.1,317 55.1,316.9 55.2,316.8 55.3,316.8 55.3,316.8 55.4,316.7 55.5,316.7 73.3,316.7 73.3,316.7 73.4,316.7 73.5,316.6 
	73.6,316.6 73.6,316.5 73.6,316.5 73.7,316.4 73.7,316.3 73.7,306 73.7,305.9 73.7,305.8 73.7,316.1 "/>
<polygon points="73.8,326.6 73.8,337.1 73.8,337.2 73.7,337.3 73.7,337.4 73.6,337.4 73.6,337.5 73.5,337.5 73.4,337.5 73.3,337.5 
	44,337.5 43.9,337.5 43.8,337.5 43.8,337.5 43.7,337.4 43.7,337.4 43.6,337.3 43.6,337.2 43.6,337.3 43.6,337.4 43.6,337.5 
	43.7,337.5 43.7,337.6 43.8,337.6 43.9,337.7 43.9,337.7 44,337.7 73.4,337.7 73.5,337.7 73.5,337.7 73.6,337.6 73.7,337.6 
	73.7,337.5 73.8,337.5 73.8,337.4 73.8,337.3 73.8,326.8 73.8,326.7 "/>
<polygon points="73.6,295.8 73.6,295.9 73.6,296 73.5,296 73.5,296.1 73.4,296.1 73.3,296.2 73.2,296.2 55.6,296.2 55.5,296.2 
	55.4,296.2 55.3,296.2 55.3,296.3 55.2,296.4 55.2,296.4 55.2,296.5 55.2,296.6 55.2,304.9 55.2,305 55.2,305.1 55.2,296.8 
	55.2,296.7 55.2,296.6 55.3,296.5 55.3,296.5 55.4,296.4 55.4,296.4 55.5,296.4 55.6,296.4 73.3,296.4 73.3,296.3 73.4,296.3 
	73.5,296.3 73.6,296.2 73.6,296.2 73.6,296.1 73.7,296 73.7,295.9 73.7,285.8 73.7,285.7 73.7,285.6 73.7,295.8 "/>
<path d="M170.5,299.5h40v7.7h-29.3v9.7h28.3v7.6h-28.3v10.3h30.5v7.7h-41.2V299.5z"/>
<path d="M216.9,299.5h10v42.9h-10V299.5z"/>
<path d="M241.6,328.7c0.3,1.5,1,2.9,1.9,4.1c2.3,2.4,5.5,3.7,8.8,3.5c6.5,0,8.9-3.1,9.8-4.3l10.4,1c-4.5,7.4-12,10.5-20.7,10.5
	c-5.2,0-10.6-1-14.7-4.3c-3.7-3.1-5.8-7.7-5.8-12.6c0-11.3,9.7-16.3,20.6-16.3c4.2,0,11.3,0.9,16,5.9c4.1,4.3,4.1,9.2,4.2,12.4
	H241.6z M261.1,323.2c-0.2-1.7-1.2-3.3-2.7-4.1c-2-1.1-4.3-1.6-6.6-1.6c-2.4-0.1-4.8,0.6-6.9,1.8c-1.4,0.9-2.5,2.3-3,4H261.1z"/>
<path d="M315.1,332.9c-4.3,8.3-13.4,10.8-19.8,10.8c-10.2,0-19.8-5.8-19.8-16.7c0-12.4,11.7-16.6,20.3-16.6
	c4.8-0.1,9.6,1.3,13.7,3.9c2.2,1.5,3.9,3.6,5,6l-10.5,1.2c-0.8-1.1-2.9-3.5-8.2-3.5c-5.8,0-10.2,3.8-10.2,9c0,4,2.9,9.1,10,9.1
	c2.2,0,4.4-0.5,6.4-1.6c1.2-0.6,2.2-1.7,2.8-2.9L315.1,332.9z"/>
<path d="M321,303.4h10v8.2h6.9v6H331v13.9c0,3,1,3.7,3.9,3.7c1,0,2-0.1,3-0.2v7.2c-2.4,0.2-4.9,0.5-7.3,0.5c-2,0.1-4.1-0.3-6-1.1
	c-3.6-1.9-3.6-5.2-3.6-7.5v-16.5h-5v-6h5V303.4z"/>
<path d="M353.6,316.9c1.5-2.3,4-6.1,12.9-6.3v9.1c-0.9-0.1-1.6-0.1-2.6-0.1c-2.3,0-4.6,0.4-6.7,1.3c-3.1,1.6-3.6,4-3.6,6.7v14.8
	h-10.1v-30.8h10.1L353.6,316.9z"/>
<path d="M409.8,326.5c0,11.2-9.5,17.1-21,17.1c-12.6,0-21.2-6.5-21.2-16.7c0-10.3,9.2-16.8,21.5-16.8
	C402.7,310.3,409.8,317.8,409.8,326.5z M378,327.1c0,1.7,0.7,9.1,10.8,9.1c8.3,0,10.6-5.3,10.6-9.5c0-5.5-4.3-9.5-11.3-9.1
	C381,318,378,322.4,378,327.1z"/>
<path d="M415,321.7h17.2v7.5H415V321.7z"/>
<path d="M429.6,299.5h11.9l11.5,28.2c0.5,1.3,1,2.7,1.3,4.1c0.3-1.4,0.8-2.8,1.4-4.1l11.6-28.2h11.6l-19.3,42.9H449L429.6,299.5z"/>
<path d="M516.6,326.5c0,11.2-9.5,17.1-21,17.1c-12.6,0-21.2-6.5-21.2-16.7c0-10.3,9.2-16.8,21.5-16.8
	C509.4,310.3,516.6,317.8,516.6,326.5z M484.8,327.1c0,1.7,0.7,9.1,10.8,9.1c8.3,0,10.6-5.3,10.6-9.5c0-5.5-4.3-9.5-11.2-9.1
	C487.7,318,484.8,322.4,484.8,327.1L484.8,327.1z"/>
<path d="M532,300.9v6.8h-10v-6.8H532z M532,311.6v30.8h-10v-30.8H532z"/>
<path d="M576.9,332.9c-4.3,8.3-13.4,10.8-19.8,10.8c-10.2,0-19.8-5.8-19.8-16.7c0-12.4,11.7-16.6,20.3-16.6
	c4.8-0.1,9.6,1.3,13.7,3.9c2.2,1.5,3.9,3.6,5,6l-10.5,1.2c-0.8-1.1-2.9-3.5-8.2-3.5c-5.8,0-10.2,3.8-10.2,9c0,4,2.9,9.1,10,9.1
	c2.2,0,4.4-0.5,6.4-1.6c1.2-0.6,2.2-1.7,2.8-2.9L576.9,332.9z"/>
<path d="M589.4,328.7c0.3,1.5,1,2.9,1.9,4.1c2.3,2.4,5.5,3.7,8.8,3.5c6.5,0,8.9-3.1,9.8-4.3l10.4,1c-4.5,7.4-12,10.5-20.7,10.5
	c-5.2,0-10.6-1-14.7-4.3c-3.7-3.1-5.8-7.7-5.8-12.6c0-11.3,9.7-16.3,20.6-16.3c4.2,0,11.3,0.9,16,5.9c4.1,4.3,4.1,9.2,4.2,12.4
	H589.4z M608.9,323.2c-0.2-1.7-1.2-3.3-2.7-4.1c-2-1.1-4.3-1.6-6.6-1.6c-2.4-0.1-4.8,0.6-6.9,1.8c-1.4,0.9-2.5,2.3-3,4H608.9z"/>
</svg>
