<?xml version="1.0" encoding="utf-8"?>
<!-- Generator: Adobe Illustrator 19.2.1, SVG Export Plug-In . SVG Version: 6.00 Build 0)  -->
<svg version="1.1" id="layer" xmlns="http://www.w3.org/2000/svg" xmlns:xlink="http://www.w3.org/1999/xlink" x="0px" y="0px"
	 viewBox="0 0 652 652" style="enable-background:new 0 0 652 652;" xml:space="preserve">
<style type="text/css">
	.st0{fill:#B10A32;}
</style>
<path class="st0" d="M25,346.7c0.4-0.9,0.8-1.8,1.2-2.8c4-11.2,7.9-22.4,12.2-33.5c3.2-8.2,8-15.3,15.4-20.4
	c5.7-3.9,12-5.9,18.7-6.8c9.6-1.3,19.1-1.3,28.5,1.4c5.4,1.5,10.4,3.7,14.7,7.5c6.5,5.8,7.8,13.9,3.2,21.4
	c-4.1,6.6-10.2,10.4-17.4,12.5c-7.2,2.1-14.7,2.3-22.1,1.7c-4-0.3-8.1-1-12.1-1.5c-0.9-0.1-1.3-0.5-1.5-1.5c-0.9-4.4-1.9-8.7-2.8-13
	c-0.1-0.3-0.1-0.6-0.2-1.1c2.7,0.5,5.3,1,7.9,1.5c6.7,1.1,13.5,1.8,20.2,0.4c2.5-0.5,5.1-1.5,7.2-2.8c3.7-2.4,3.6-6.2,0.1-8.9
	c-2.6-2-5.7-2.8-8.9-3.1c-5.7-0.6-11.4-0.5-17,1.2c-7,2.1-11.6,7-14,13.8c-4,11-7.8,22.1-11.7,33.1c-0.4,1.1-0.9,1.4-2,1.4
	c-6.5-0.1-13,0-19.4,0V346.7z M560.2,369.1c0.5-1.6,0.9-3.2,1.4-4.8c0.5-1.5,0.7-3.5,1.8-4.3c1-0.7,2.9-0.2,4.4-0.2
	c4.6-0.2,9.1-0.7,13.4-2.4c4.9-2,8.4-5.2,10.2-10.5c2.6-7.8,5.5-15.5,8.3-23.3c0.2-0.4,0.3-0.9,0.4-1.3c0.8-3-0.2-4.2-3.2-4.2
	c-1.5,0-3,0-4.7,0c1-2.7,1.8-5.2,2.8-7.6c0.1-0.3,1-0.6,1.5-0.6c9.1,0,18.3,0,27.4,0c0.3,0,0.7,0,1,0v0.3c-0.2,0.5-0.4,0.9-0.6,1.4
	c-4.7,13.1-9.4,26.3-14.1,39.4c-2.7,7.4-7.6,12.7-15,15.2c-2.6,0.9-5.4,1.5-8.2,2c-3,0.5-6.1,0.6-9.1,1H560.2z M215.2,347.3
	c0.1-0.4,0.2-0.8,0.3-1.1c2.3-6.5,4.6-13,7-19.4c2.7-7.2,7.7-12.2,14.7-14.9c10.4-4,21.1-4.7,31.9-2.2c2.6,0.6,5.2,1.9,7.5,3.4
	c4.5,3.1,6.2,8.1,4.4,13.3c-2.2,6.7-4.7,13.3-7.2,20c-0.1,0.4-0.7,0.8-1,0.8c-6.1,0.1-12.1,0-18.4,0c0.2-0.7,0.4-1.3,0.6-1.8
	c2.1-5.7,4.1-11.4,6.2-17.1c1.5-4.1,0.1-6.8-4-8.1c-6.6-2.1-13.7,1.5-16.1,8.1c-2.1,5.9-4.2,11.8-6.4,17.7c-0.2,0.5-0.8,1.2-1.2,1.2
	C227.5,347.3,221.4,347.3,215.2,347.3z M476.5,310.1c-0.1,0.5-0.2,0.9-0.3,1.2c-1,2.8-2,5.7-2.9,8.5c-0.3,0.9-0.7,1.2-1.6,1.2
	c-3.8-0.1-7.6,0-11.4,0c-4.8,0-6.8,1.3-8.5,5.9c-2.3,6.3-4.5,12.6-6.6,18.9c-0.4,1.3-1,1.6-2.2,1.6c-5.3-0.1-10.5,0-15.8,0h-1.6
	c0.3-0.8,0.4-1.4,0.7-2c2.5-7.3,5.1-14.5,7.6-21.8c2.2-6.3,6-11.1,12.7-12.8c1.8-0.5,3.8-0.7,5.7-0.7c7.8-0.1,15.6,0,23.3,0
	C475.7,310,476,310,476.5,310.1z M146,310c-0.2,0.8-0.4,1.3-0.6,1.8c-4.1,11.4-8.2,22.7-12.2,34.1c-0.4,1.1-0.8,1.5-2,1.5
	c-6-0.1-12,0-18.3,0c0.2-0.6,0.3-1,0.4-1.5c4.1-11.5,8.3-23,12.4-34.5c0.4-1,0.9-1.4,1.9-1.4C133.7,310,139.7,310,146,310z
	 M350.5,334.3c-1.3,3.7-2.5,7.1-3.8,10.6c-0.2,0.5-0.9,1-1.5,1.2c-9.1,2.7-18.3,3.4-27.7,2.9c-6.7-0.3-13.3-1.4-19.5-4.2
	c-3.8-1.7-7.2-3.9-9.8-7.2c-3.4-4.4-3.9-9.1-1.2-14.1c2.3-4.2,5.7-7.1,9.8-9.3c5.7-3.1,11.9-4.7,18.2-5.4c9.6-1.1,19.1-0.2,28.1,3.6
	c2.6,1.1,5,2.7,7.3,4.3c1.2,0.9,2.3,2.2,3.1,3.5c1.5,2.4,1.3,5-0.9,6.7c-1.6,1.3-3.5,2.4-5.4,3.2c-5.1,2.1-10.5,2.7-15.9,3.3
	c-8,0.8-16,0.7-23.7-1.7c-2.7-0.8-5.2-2.1-7.8-3.2c-0.2,1.9,0.6,3.4,1.9,4.7c2.2,2.3,5,3.3,8,4.1c7.3,1.9,14.7,1.8,22.1,1.1
	c6.1-0.6,12.1-1.9,17.9-3.8C349.9,334.4,350.1,334.4,350.5,334.3z M306.9,321.1c1.2,0.4,2,0.8,2.9,1.1c5.5,1.6,11.2,2.1,17,1.9
	c2.3-0.1,4.6-0.4,6.8-0.9c0.7-0.1,1.3-1,1.9-1.5c-0.6-0.6-1.1-1.3-1.7-1.7c-0.5-0.4-1.2-0.5-1.8-0.7c-2.3-0.4-4.6-0.9-7-1.1
	C318.9,317.8,313,318.7,306.9,321.1z M423.1,334.3c-1.3,3.7-2.6,7.2-3.9,10.7c-0.2,0.5-0.9,0.9-1.4,1.1c-9.1,2.7-18.3,3.4-27.7,2.9
	c-6.5-0.3-12.8-1.3-18.8-3.9c-3.5-1.5-6.6-3.4-9.3-6.2c-4.9-5.2-5.4-11-1.5-17c2.8-4.3,6.8-7.1,11.3-9.1c8.3-3.7,17.1-4.9,26-4.5
	c5.8,0.3,11.6,1.2,17,3.6c3,1.3,5.8,3.2,8.6,5c0.8,0.5,1.4,1.3,2,2.1c2.4,3.2,2.1,6.2-1.1,8.6c-2.6,2-5.7,3-8.8,3.7
	c-10.5,2.4-21.1,3.4-31.6,1.1c-3.6-0.8-7-2.5-10.4-3.8c-0.3-0.1-0.6-0.3-1.1-0.5c-0.2,2.1,0.6,3.6,1.8,4.9c2.2,2.3,5,3.3,8,4.1
	c7.3,1.9,14.7,1.9,22.1,1.1c6.1-0.6,12.1-1.9,17.9-3.8C422.4,334.4,422.6,334.4,423.1,334.3z M379.4,321.1c1.3,0.5,2.1,0.9,3,1.1
	c3,0.6,6.1,1.3,9.2,1.7c4.7,0.5,9.4,0.7,14.1-0.5c0.9-0.2,1.6-1.1,2.5-1.7c-0.8-0.6-1.5-1.7-2.3-1.9c-2.7-0.7-5.4-1.2-8.1-1.5
	C391.4,317.7,385.5,318.7,379.4,321.1z M178.7,349.2c-7.8-0.1-15.5-1.3-22.7-4.9c-3.3-1.6-6.2-3.7-8.5-6.7
	c-3.5-4.6-3.7-9.8-0.6-14.7c2.3-3.7,5.6-6.2,9.4-8.2c9.1-4.9,18.8-6.5,29-6.1c6.9,0.3,13.6,1.6,19.9,4.7c3,1.5,5.8,3.4,8,6.1
	c4.2,5,4.5,11,0.6,16.3c-3.3,4.5-7.8,7.2-12.7,9.3C194,347.9,186.5,349.1,178.7,349.2z M180.6,337.6c1.2-0.2,3.1-0.3,5-0.7
	c3-0.7,5.8-1.9,8-4.3c2.4-2.7,2.3-6.1-0.3-8.5c-0.8-0.7-1.6-1.5-2.6-1.8c-2.5-0.8-5.1-1.7-7.6-2c-4.2-0.5-8.3,0.3-12.1,2.3
	c-1.1,0.6-2.2,1.4-3.1,2.3c-2.8,2.8-2.6,6.5,0.4,9.1C171.6,336.7,175.7,337.4,180.6,337.6z M501,347.5c1.8-5.1,3.5-9.8,5.2-14.4
	c5.2-14.4,10.3-28.9,15.5-43.3c0.4-1.2,1-1.6,2.2-1.6c11.6,0.1,23.3,0.1,34.9,0.3c5.7,0.1,11.4,0.9,16.7,3.4c6,2.8,10.6,7,12.2,13.8
	c1.2,5.3-0.1,10.4-2.5,15.1c-4.1,8.4-10.8,14.1-18.7,18.6c-8.3,4.7-17.3,7.2-26.7,7.6C527.1,347.4,514.2,347.3,501,347.5z
	 M530.8,338.2c1.4-0.1,2.8-0.2,4.2-0.4c7.5-0.9,14.6-3,20.6-7.8c6.4-5.1,10.3-11.7,10-20.3c-0.3-6.6-3.8-10.8-10.1-11.8
	c-3.8-0.6-7.7-0.5-11.5-0.6c-4.1-0.1-4.9,0.5-6.3,4.4c-3.7,10.1-7.3,20.2-10.9,30.3C525,336.8,525.9,338.2,530.8,338.2z"/>
</svg>
